# xmcd
#
# Track frame offsets:
#	150
#	17175
#	33143
#	49282
#	64758
#	76834
#	90871
#	105838
#	122679
#	140311
#	154668
#	169400
#	184866
#	199290
#	217733
#	231336
#	249119
#	266102
#
# Disc length: 3736 seconds
#
# Revision: 1
# Processed by: cddbd v1.5.2PL0 Copyright (c) Steve Scherf et al.
# Submitted via: audiograbber 1.82.02
#
DISCID=e60e9612
DTITLE=Various Artist - Country Radio - June 2018
DYEAR=2018
DGENRE=Country
TTITLE0=Scotty McCreery - This Is It
TTITLE1=THW - Damn I Just Wanna Kiss You (Clean Edit)
TTITLE2=Rebel Union - Secondhand High
TTITLE3=Davisson Brothers Band - Po' Boyz (PO Clean Edit)
TTITLE4=Rodney Atkins - Caught Up In The Country
TTITLE5=Parmalee - Hotdamalama
TTITLE6=Will Carter - That Kiss
TTITLE7=T.J. Sparks - Back To You
TTITLE8=Jason Owens - Firecracker (PO Clean Edit)
TTITLE9=Montgomery Gentry - Get Down South
TTITLE10=Kenny Chesney - Get Along
TTITLE11=Chris Stapelton - Millionaire
TTITLE12=Faren Rachels - Uber Driver
TTITLE13=Carrie Underwood - Cry Pretty
TTITLE14=Lauren Ashley and The Trainwreckers - One Fine Day
TTITLE15=Devin Dawson - Asking For A Friend
TTITLE16=Matt Mason - E
TTITLE17=Melissa Mickelson - Hold On
EXTD=
EXTT0=
EXTT1=
EXTT2=
EXTT3=
EXTT4=
EXTT5=
EXTT6=
EXTT7=
EXTT8=
EXTT9=
EXTT10=
EXTT11=
EXTT12=
EXTT13=
EXTT14=
EXTT15=
EXTT16=
EXTT17=
PLAYORDER=
